<svg width="24" height="24" viewBox="0 0 24 24" fill="none" xmlns="http://www.w3.org/2000/svg">
<rect width="24" height="24" fill="white"/>
<mask id="path-1-inside-1_8_8" fill="white">
<path d="M12 3C17.5227 3.00008 22 6.51749 22 10.8564C22 12.8779 21.0271 14.7201 19.4307 16.1123L19.7852 20.6152L16.4277 17.9004C15.0929 18.4193 13.5902 18.7129 12 18.7129C6.47725 18.7129 2 15.1955 2 10.8564C2.00002 6.51745 6.47726 3 12 3Z"/>
</mask>
<path d="M12 3L12 2H12V3ZM22 10.8564H23V10.8564L22 10.8564ZM19.4307 16.1123L18.7734 15.3586C18.5349 15.5666 18.4089 15.8753 18.4337 16.1908L19.4307 16.1123ZM19.7852 20.6152L19.1564 21.3928C19.4671 21.6441 19.8975 21.6862 20.2511 21.5001C20.6046 21.3139 20.8134 20.9351 20.7821 20.5368L19.7852 20.6152ZM16.4277 17.9004L17.0565 17.1228C16.7777 16.8974 16.3996 16.8384 16.0654 16.9683L16.4277 17.9004ZM12 18.7129V19.7129H12L12 18.7129ZM2 10.8564L1 10.8564V10.8564H2ZM12 3L12 4C17.2086 4.00007 21 7.2811 21 10.8565L22 10.8564L23 10.8564C23 5.75389 17.8367 2.00008 12 2L12 3ZM22 10.8564H21C21 12.5382 20.1935 14.1202 18.7734 15.3586L19.4307 16.1123L20.0879 16.866C21.8607 15.3199 23 13.2175 23 10.8564H22ZM19.4307 16.1123L18.4337 16.1908L18.7882 20.6937L19.7852 20.6152L20.7821 20.5368L20.4276 16.0338L19.4307 16.1123ZM19.7852 20.6152L20.4139 19.8376L17.0565 17.1228L16.4277 17.9004L15.799 18.678L19.1564 21.3928L19.7852 20.6152ZM16.4277 17.9004L16.0654 16.9683C14.8473 17.4418 13.4676 17.7129 12 17.7129L12 18.7129L12 19.7129C13.7128 19.7129 15.3384 19.3967 16.79 18.8324L16.4277 17.9004ZM12 18.7129V17.7129C6.79134 17.7129 3 14.4319 3 10.8564H2H1C1 15.9591 6.16316 19.7129 12 19.7129V18.7129ZM2 10.8564L3 10.8565C3.00002 7.28104 6.79136 4 12 4V3V2C6.16317 2 1.00002 5.75386 1 10.8564L2 10.8564Z" fill="black" mask="url(#path-1-inside-1_8_8)"/>
<ellipse cx="12.0001" cy="11.5709" rx="0.714134" ry="0.714086" fill="black"/>
<ellipse cx="15.572" cy="11.5709" rx="0.714134" ry="0.714086" fill="black"/>
<ellipse cx="8.4286" cy="11.5709" rx="0.714134" ry="0.714086" fill="black"/>
</svg>
