<svg width="24" height="24" viewBox="0 0 24 24" fill="none" xmlns="http://www.w3.org/2000/svg">
<rect width="24" height="24" fill="white"/>
<rect x="2.5" y="8.5" width="3" height="7" fill="#2D2D2D" stroke="#2D2D2D"/>
<path d="M12.5 20.9121L6.5 15.7695V8.22949L12.5 3.08691V20.9121Z" fill="#2D2D2D" stroke="#2D2D2D"/>
<mask id="path-3-inside-1_74_284" fill="white">
<path d="M14.0122 15.4674C14.6134 15.1189 15.1134 14.6199 15.4631 14.0195C15.8128 13.419 16 12.7379 16.0064 12.043C16.0127 11.3482 15.8379 10.6637 15.4993 10.057C15.1606 9.45025 14.6698 8.9422 14.075 8.58288L13.5994 9.37003C14.0574 9.64674 14.4354 10.038 14.6962 10.5052C14.957 10.9725 15.0916 11.4996 15.0867 12.0346C15.0818 12.5697 14.9377 13.0943 14.6684 13.5567C14.3991 14.0191 14.014 14.4033 13.551 14.6716L14.0122 15.4674Z"/>
</mask>
<path d="M14.0122 15.4674C14.6134 15.1189 15.1134 14.6199 15.4631 14.0195C15.8128 13.419 16 12.7379 16.0064 12.043C16.0127 11.3482 15.8379 10.6637 15.4993 10.057C15.1606 9.45025 14.6698 8.9422 14.075 8.58288L13.5994 9.37003C14.0574 9.64674 14.4354 10.038 14.6962 10.5052C14.957 10.9725 15.0916 11.4996 15.0867 12.0346C15.0818 12.5697 14.9377 13.0943 14.6684 13.5567C14.3991 14.0191 14.014 14.4033 13.551 14.6716L14.0122 15.4674Z" fill="#2D2D2D" stroke="#2D2D2D" stroke-width="2" mask="url(#path-3-inside-1_74_284)"/>
<mask id="path-4-inside-2_74_284" fill="white">
<path d="M15.986 17.2196C16.8881 16.7043 17.6409 15.9635 18.1708 15.0698C18.7007 14.1762 18.9894 13.1602 19.0087 12.1215C19.0281 11.0827 18.7774 10.0567 18.2811 9.14395C17.7849 8.23118 17.0601 7.46291 16.1778 6.91434L15.6684 7.73373C16.4088 8.19409 17.017 8.83882 17.4335 9.6048C17.8499 10.3708 18.0603 11.2318 18.0441 12.1035C18.0278 12.9752 17.7855 13.8278 17.3409 14.5778C16.8962 15.3277 16.2644 15.9494 15.5074 16.3818L15.986 17.2196Z"/>
</mask>
<path d="M15.986 17.2196C16.8881 16.7043 17.6409 15.9635 18.1708 15.0698C18.7007 14.1762 18.9894 13.1602 19.0087 12.1215C19.0281 11.0827 18.7774 10.0567 18.2811 9.14395C17.7849 8.23118 17.0601 7.46291 16.1778 6.91434L15.6684 7.73373C16.4088 8.19409 17.017 8.83882 17.4335 9.6048C17.8499 10.3708 18.0603 11.2318 18.0441 12.1035C18.0278 12.9752 17.7855 13.8278 17.3409 14.5778C16.8962 15.3277 16.2644 15.9494 15.5074 16.3818L15.986 17.2196Z" fill="#2D2D2D" stroke="#2D2D2D" stroke-width="2" mask="url(#path-4-inside-2_74_284)"/>
<mask id="path-5-inside-3_74_284" fill="white">
<path d="M17.9397 18.9831C19.1443 18.3044 20.1525 17.3251 20.8659 16.1407C21.5793 14.9563 21.9736 13.6072 22.0102 12.225C22.0468 10.8428 21.7246 9.47473 21.075 8.25418C20.4253 7.03363 19.4704 6.0023 18.3034 5.26078L17.7653 6.10762C18.786 6.75614 19.6211 7.65813 20.1893 8.7256C20.7575 9.79307 21.0393 10.9896 21.0072 12.1984C20.9752 13.4073 20.6304 14.5872 20.0065 15.623C19.3825 16.6589 18.5008 17.5154 17.4472 18.1089L17.9397 18.9831Z"/>
</mask>
<path d="M17.9397 18.9831C19.1443 18.3044 20.1525 17.3251 20.8659 16.1407C21.5793 14.9563 21.9736 13.6072 22.0102 12.225C22.0468 10.8428 21.7246 9.47473 21.075 8.25418C20.4253 7.03363 19.4704 6.0023 18.3034 5.26078L17.7653 6.10762C18.786 6.75614 19.6211 7.65813 20.1893 8.7256C20.7575 9.79307 21.0393 10.9896 21.0072 12.1984C20.9752 13.4073 20.6304 14.5872 20.0065 15.623C19.3825 16.6589 18.5008 17.5154 17.4472 18.1089L17.9397 18.9831Z" fill="#2D2D2D" stroke="#2D2D2D" stroke-width="2" mask="url(#path-5-inside-3_74_284)"/>
</svg>
